<?xml version="1.0" encoding="UTF-8"?>
<svg width="128px" height="30px" viewBox="0 0 128 30" version="1.1" xmlns="http://www.w3.org/2000/svg" xmlns:xlink="http://www.w3.org/1999/xlink">
    <!-- Generator: Sketch 48.2 (47327) - http://www.bohemiancoding.com/sketch -->
    <title>Logo</title>
    <desc>Created with Sketch.</desc>
    <defs>
        <polygon id="path-1" points="0 0.220625 129.941875 0.220625 129.941875 30 0 30"></polygon>
        <polygon id="path-3" points="0 0.220625 129.941875 0.220625 129.941875 30 0 30"></polygon>
    </defs>
    <g id="Landing-page" stroke="none" stroke-width="1" fill="none" fill-rule="evenodd" transform="translate(-107.000000, -84.000000)">
        <g id="Logo" transform="translate(107.000000, 84.000000)">
            <g id="Group-3">
                <mask id="mask-2" fill="white">
                    <use xlink:href="#path-1"></use>
                </mask>
                <g id="Clip-2"></g>
                <path d="M3.5885625,4.3775 C4.2998125,4.80375 4.7260625,5.621875 4.9035625,7.04375 C6.6098125,5.194375 8.2798125,4.3775 10.4123125,4.3775 C13.6816875,4.3775 15.8491875,6.723125 15.8491875,10.205625 L15.8491875,20.83125 L11.7629375,20.83125 L11.7629375,11.591875 C11.7629375,8.998125 10.8741875,7.78875 8.9554375,7.78875 C7.5335625,7.78875 6.4323125,8.393125 5.1529375,9.885625 L5.1529375,20.83125 L1.0654375,20.83125 L1.0654375,11.2 C1.0654375,7.469375 0.8885625,6.545 -0.0001875,5.47875 L3.5885625,4.3775 Z" id="Fill-1" fill="#000000" mask="url(#mask-2)"></path>
            </g>
            <path d="M28.4124375,10.6320625 C28.2699375,8.6420625 26.7780625,7.2201875 24.7874375,7.2201875 C22.9399375,7.2201875 21.4824375,8.5351875 21.0205625,10.6320625 L28.4124375,10.6320625 Z M21.0555625,13.2258125 C21.2693125,16.0345625 23.2593125,18.0239375 25.8893125,18.0239375 C27.5593125,18.0239375 29.0874375,17.4551875 30.4380625,16.3183125 L31.8599375,18.5220625 C30.0824375,20.4051875 27.8086875,21.3283125 24.9649375,21.3283125 C20.3099375,21.3283125 16.9693125,17.8464375 16.9693125,12.9770625 C16.9693125,8.0014375 20.4161875,4.3426875 25.0718125,4.3426875 C28.9099375,4.3426875 31.8599375,7.1489375 31.8599375,10.8451875 L31.8599375,11.2001875 L30.4024375,13.2258125 L21.0555625,13.2258125 Z" id="Fill-4" fill="#000000"></path>
            <g id="Group-8">
                <mask id="mask-4" fill="white">
                    <use xlink:href="#path-3"></use>
                </mask>
                <g id="Clip-7"></g>
                <path d="M44.046,7.860125 L39.569125,7.860125 L39.569125,14.79075 C39.569125,17.171375 40.101,17.882 41.806625,17.882 C42.62475,17.882 43.335375,17.74075 44.64975,17.277625 L45.254125,19.942625 C43.725375,20.796375 42.234125,21.151375 40.350375,21.151375 C37.22225,21.151375 35.51725,19.481375 35.51725,16.31825 L35.51725,15.002625 L35.51725,7.860125 L32.319125,7.860125 L32.319125,5.30075 C35.9435,5.052 36.761,4.235125 37.50725,0.220125 L39.6035,0.220125 L39.569125,4.875125 L44.046,4.875125 L44.046,7.860125 Z" id="Fill-6" fill="#000000" mask="url(#mask-4)"></path>
            </g>
            <path d="M69.4015,8.6423125 C68.265875,8.2510625 67.874,8.1798125 67.3765,8.1798125 C66.0265,8.1798125 64.853375,9.0685625 63.538375,11.1291875 L63.467125,11.1998125 L63.467125,20.8310625 L59.379625,20.8310625 L59.379625,11.1998125 C59.379625,7.4691875 59.203375,6.5448125 58.314,5.4785625 L61.903375,4.3773125 C62.8265,4.9460625 63.253375,6.0829375 63.253375,8.0735625 L63.324625,7.9673125 C64.49775,5.6216875 66.097125,4.3423125 67.874,4.3423125 C68.584625,4.3423125 69.153375,4.5198125 70.360875,5.0523125 L69.4015,8.6423125 Z" id="Fill-9" fill="#000000"></path>
            <path d="M73.898625,12.373375 C73.898625,15.714 75.853,18.1665 78.553625,18.1665 C81.0055,18.1665 82.604875,16.2115 82.604875,13.262125 C82.604875,10.02775 80.684875,7.647125 78.09175,7.647125 C75.603625,7.647125 73.898625,9.5665 73.898625,12.373375 M86.762375,12.8365 C86.762375,17.77525 83.208625,21.329625 78.233625,21.329625 C73.223625,21.329625 69.739875,17.882125 69.739875,12.977125 C69.739875,7.967125 73.4005,4.34275 78.518,4.34275 C83.208625,4.34275 86.762375,8.0015 86.762375,12.8365" id="Fill-11" fill="#000000"></path>
            <path d="M102.615625,15.3235 C102.615625,17.31475 102.68625,17.740375 103.076875,18.12975 C103.36125,18.450375 104.001875,18.627875 104.534375,18.59225 C104.57,18.59225 104.640625,18.59225 104.746875,18.55725 L104.21375,21.080375 C103.396875,21.2585 103.00625,21.2935 102.473125,21.2935 C100.411875,21.2935 99.31,20.58225 98.919375,18.984125 C97.141875,20.68975 95.684375,21.329125 93.66,21.329125 C91.4925,21.329125 89.573125,20.36975 88.755625,18.87725 C88.2225,17.88225 88.044375,16.77975 88.044375,14.719125 L88.044375,4.875375 L92.131875,4.875375 L92.131875,14.291625 C92.131875,16.744125 93.055,17.88225 94.974375,17.88225 C96.359375,17.88225 97.2125,17.45475 98.5275,16.10475 L98.5275,4.875375 L102.615625,4.875375 L102.615625,15.3235 Z" id="Fill-13" fill="#000000"></path>
            <path d="M110.092437,17.2070625 C110.767437,17.7408125 111.904312,18.0951875 113.005562,18.0951875 C115.743062,18.0951875 117.448687,16.1408125 117.448687,12.9770625 C117.448687,9.9564375 115.600562,7.7183125 113.112437,7.7183125 C112.118062,7.7183125 111.264937,7.9670625 110.092437,8.5708125 L110.092437,17.2070625 Z M110.092437,29.5383125 L106.004312,29.5383125 L106.004312,11.2001875 C106.004312,7.4695625 105.828687,6.5451875 104.939937,5.4789375 L108.527437,4.3776875 C109.062437,4.6970625 109.487437,5.3370625 109.629937,5.9758125 C111.051187,4.9458125 112.721812,4.4133125 114.499312,4.4133125 C118.621187,4.4133125 121.642437,7.8951875 121.642437,12.6576875 C121.642437,17.6326875 118.300562,21.1514375 113.574937,21.1514375 C112.188687,21.1514375 111.478062,21.0095625 110.092437,20.5476875 L110.092437,29.5383125 Z" id="Fill-15" fill="#000000"></path>
            <path d="M52.200625,19.1968125 C51.09875,18.9124375 49.92625,18.6630625 48.824375,18.3793125 C48.07875,18.1974375 47.58625,18.0468125 47.2675,17.8893125 L47.2675,21.4980625 L49.108125,21.8968125 C51.915625,22.5380625 52.698125,23.1068125 52.698125,24.4918125 C52.698125,26.1624375 51.09875,27.2986875 48.7175,27.2986875 C48.2025,27.2986875 47.716875,27.2399375 47.2675,27.1349375 L47.2675,29.9380625 C47.668125,29.9755625 48.07875,29.9999375 48.50375,29.9999375 C53.230625,29.9999375 56.6425,27.4061875 56.6425,23.8174375 C56.6425,21.3993125 55.256875,19.9424375 52.200625,19.1968125 L52.200625,19.1968125 Z M51.41875,4.8393125 C50.068125,4.4136875 49.3575,4.2711875 48.29125,4.2711875 C47.94,4.2711875 47.600625,4.2986875 47.2675,4.3386875 L47.2675,6.9555625 C47.625625,6.8043125 48.0275,6.7224375 48.46875,6.7224375 C50.28125,6.7224375 51.560625,8.3224375 51.560625,10.5611875 C51.560625,12.5511875 50.49375,13.7943125 48.753125,13.7943125 C48.2025,13.7943125 47.706875,13.6449375 47.2675,13.3949375 L47.2675,16.4718125 C47.33375,16.4205625 47.391875,16.3724375 47.474375,16.3186875 C48.113125,16.3893125 48.3975,16.3893125 48.824375,16.3893125 C52.555625,16.3893125 55.2925,13.9736875 55.2925,10.6680625 C55.2925,9.3893125 54.93625,8.3580625 54.119375,7.2561875 L57.424375,7.3980625 L57.424375,4.8393125 L51.41875,4.8393125 Z" id="Fill-17" fill="#000000"></path>
            <path d="M127.941562,19.24975 C127.941562,20.515375 126.915312,21.541625 125.649687,21.541625 C124.384062,21.541625 123.358437,20.515375 123.358437,19.24975 C123.358437,17.984125 124.384062,16.957875 125.649687,16.957875 C126.915312,16.957875 127.941562,17.984125 127.941562,19.24975" id="Fill-19" fill="#000000"></path>
        </g>
    </g>
</svg>